<?xml version="1.0" encoding="utf-8"?>
<!-- Generator: Adobe Illustrator 24.0.1, SVG Export Plug-In . SVG Version: 6.00 Build 0)  -->
<svg version="1.1" id="Layer_1" xmlns="http://www.w3.org/2000/svg" xmlns:xlink="http://www.w3.org/1999/xlink" x="0px" y="0px"
	 viewBox="0 0 3289 415" style="enable-background:new 0 0 3289 415;" xml:space="preserve">
<g>
	<path d="M760.07,375.02c-3.23,0.01-6.48-4.38-8.66-7.47c-25.12-35.67-50.04-71.48-75.02-107.24c-1.93-2.76-3.95-5.44-7-9.62
		c-8.73,12.51-16.62,23.83-24.51,35.14c-17.8,25.52-36.11,50.71-53.13,76.73C582,378,581,376,566.2,376c-5.2,0-10.2-0.09-11.76-0.09
		c0-104.83,0-208.86,0-313.97c8.73,0,17.74-0.5,26.62,0.32c2.49,0.23,5.02,4.05,6.87,6.69c24.87,35.43,49.62,70.94,74.43,106.42
		c2.08,2.97,4.32,5.83,7.09,9.55c2.57-3.37,4.63-5.89,6.49-8.55c24.02-34.38,48.31-68.57,71.78-103.32
		C757,60,756,61.61,769.89,61.61c14.11,0,9.36,0.11,14.75,0.11c0,104.66,0.36,208.2,0.36,313.28 M592.45,296.16
		c18.45-26.46,35.49-50.66,52.07-75.17c1.18-1.74-0.23-6.32-1.8-8.66c-11.37-16.8-23.07-33.39-34.71-50
		c-4.7-6.71-9.53-13.35-15.55-21.78C592.45,193.19,592.45,243.26,592.45,296.16z M746.37,140.24
		c-18.25,26.19-34.71,49.65-50.86,73.32c-1.35,1.97-1.87,6.2-0.68,7.95c16.44,24.12,33.26,47.99,51.54,74.14
		C746.37,242.99,746.37,193.15,746.37,140.24z"/>
	<path d="M2446.71,374.3c-8.42,0-16.27,0.83-23.79-0.37c-3.5-0.56-7.08-4.57-9.4-7.88c-50.45-71.97-100.73-144.06-151.05-216.13
		c-2.09-3-4.28-5.94-7.87-10.9c0,79.37,0,156.47,0,234.44c-12.61,0-24.21,0-36.63,0c0-103.85,0-207.71,0-312.92
		c8.02,0,22.11-0.44,25.04,0.45c3.05,0.93,5.37,4.17,7.51,7.22c50.64,72.25,101.13,144.61,151.66,216.93
		c2.03,2.91,4.21,5.71,8.33,7.98c0-77.12,0-154.24,0-231.99c12.58,0,23.94,0,36.21,0C2446.71,164.93,2446.71,268.8,2446.71,374.3z"
		/>
	<path d="M1210.45,98.27c0,34.71,0,67.66,0,101.74c44.66,0,88.81,0,133.52,0c0,12.49,0,23.85,0,36.38c-44.1,0-88.25,0-133.22,0
		c0,34.32,0,67.49,0,101.69c60.95,0,121.72,0,183.18,0c0,12.6,0,24.2,0,36.48c-73.37,0-146.34,0-220.12,0c0-103.87,0-207.7,0-312.14
		c73.24,0,146.23,0,220.02,0c0,11.59,0,23.19,0,35.86C1333.01,98.27,1272.25,98.27,1210.45,98.27z"/>
	<path d="M1468.83,62.13c49.46,0,97.57-1.44,145.55,0.41c47.14,1.82,85.7,43.84,84.74,88.56c-0.97,45.52-40.2,84.16-87.87,85.46
		c-31.12,0.85-62.29,0.27-93.43,0.33c-3.68,0.01-7.36,0-12.36,0c0,46.1,0,91.5,0,137.61c-12.91,0-24.52,0-36.63,0
		C1468.83,270.49,1468.83,166.94,1468.83,62.13z M1505.6,199.68c36.24,0,71.43,1.18,106.49-0.39c26.43-1.18,46.94-20.91,49.32-43.13
		c3.36-31.27-20.94-56.79-55.29-57.36c-26.71-0.44-53.43-0.11-80.14-0.12c-6.64,0-13.28,0-20.38,0
		C1505.6,132.98,1505.6,165.91,1505.6,199.68z"/>
	<path d="M2715.32,61.23c13.31,0,25.71-0.23,37.68-0.23c0,5,0.07,4.15,0.06,6.04c-0.25,67.24-0.5,134.49-0.88,201.73
		c-0.29,52.27-41.1,98.03-92.69,104.13c-59.12,6.99-111.95-25.59-125.38-77.65c-1.93-7.46-3.27-15.31-3.3-22.98
		c-0.22-66.91-0.09-133.82-0.03-200.72c0-3,0.35-6,0.58-9.85c12.26,0,24.18,0,36.97,0c0,6.47,0.02,12.78,0,19.08
		c-0.23,62.18-0.67,124.35-0.63,186.53c0.02,36.48,28.55,66.51,64.93,69.27c41.46,3.15,75.56-20.36,81.76-56.58
		c0.85-4.95,0.88-10.09,0.89-15.14c0.06-60.15,0.04-120.3,0.04-180.45C2715.32,77.04,2715.32,69.67,2715.32,61.23z"/>
	<path d="M288.82,129.74c-11.48,5.67-21.97,10.86-32.7,16.16c-15.58-24.47-37.05-39.46-64.51-45.06
		c-34.8-7.11-64.3,3.58-88.27,29.18c-46.76,49.94-43.59,136.82,6.37,183.71c40.29,37.81,107.78,30.76,141.83-14.84
		c1.8-2.41,3.52-4.89,5.94-8.27c10.58,6.03,20.95,11.95,32.26,18.39c-22.5,33.53-52.17,55.23-90.65,63.22
		c-46.26,9.6-86.38-3.28-119.62-36.88C10.62,265.76,19.3,143.96,97.33,85.98c69.55-51.67,157.7-12.82,188.08,37.21
		C286.43,124.89,287.25,126.71,288.82,129.74z"/>
	<path d="M1074.15,290.63c10.69,6.09,20.63,11.76,31.75,18.1c-2.92,4.46-5.2,8.85-8.32,12.53c-33.64,39.64-76.04,60.27-128.27,52.29
		c-54.67-8.35-88.95-43.75-108.48-93.29c-26.04-66.08-7.37-141.75,44.43-187.29c68.7-60.39,161.65-24.19,195.7,28.45
		c1.43,2.22,2.51,4.66,4.42,8.24c-10.84,5.44-21.25,10.66-32.12,16.12c-1.47-1.79-2.8-3.19-3.88-4.76
		c-35.64-51.83-107.9-56.79-150.17-10.28c-45.91,50.51-42.52,136.09,7.13,182.97c47.99,45.31,115.43,20.93,141.8-14.8
		C1069.93,296.49,1071.69,294.04,1074.15,290.63z"/>
	<path d="M1828.5,98.69c-34.77,0-67.56,0-101.2,0c0-12.18,0-23.77,0-36.13c79.33,0,158.64,0,238.54,0c0,11.68,0,23.04,0,35.77
		c-32.85,0-65.78,0-99.93,0c0,92.72,0,184.09,0,276.18c-12.89,0-24.54,0-37.41,0C1828.5,282.76,1828.5,191.35,1828.5,98.69z"/>
	<path d="M3075.83,61.07c12.35,0,23.72,0,36.23,0c0,91.93,0,183.31,0,275.95c49.68,0,90.23,1,139.31,1c0,12.89,0,24.5,0,36.72
		c-61.34,0-114.1-1-175.54-1C3075.83,269.5,3075.83,165.65,3075.83,61.07z"/>
	<path d="M2871.9,337.1c49.99,0,98.53,0,147.61,0c0,12.64,0,24.01,0,36.31c-61.02,0-122,0-183.6,0c0-104.04,0-207.87,0-312.31
		c11.79,0,23.15,0,35.99,0C2871.9,152.64,2871.9,244.24,2871.9,337.1z"/>
</g>
</svg>
