<?xml version="1.0" encoding="UTF-8"?>
<svg id="Layer_2" data-name="Layer 2" xmlns="http://www.w3.org/2000/svg" viewBox="0 0 340.81 413.7">
  <defs>
    <style>
      .cls-1 {
        stroke-width: 0px;
      }
    </style>
  </defs>
  <g id="Layer_1-2" data-name="Layer 1">
    <path class="cls-1" d="m340.69,82.57c0-5.46-4.42-9.89-9.88-9.9l-47.23-.12c-8.27-.02-14.96-6.73-14.96-15V9.91c0-5.47-4.44-9.91-9.91-9.91H102.39c-16.57,0-30,13.43-30,30v21.45l134.99.16c5.45,0,9.88,4.42,9.9,9.88l.08,24.88h0s0,14.76,0,14.76c0,22.64-17.14,41.36-39.28,43.72h-4.38c-16.54.06-29.93,13.49-29.92,30.03l.04,70.22c-2.8,25.2-24.06,44.81-49.94,45.02l-12.14.1h-20.56c-5.47,0-9.91-4.44-9.91-9.91l-.03-207.71h-21.25c-16.57,0-30,13.43-30,30v228.74c0,5.46,4.42,9.9,9.89,9.91l47.51.1c8.27.02,14.97,6.73,14.97,15v47.47c0,5.47,4.44,9.91,9.92,9.91h156.32c16.58,0,30.01-13.44,30-30.02v-21.27s-135.37-.12-135.37-.12c-5.46,0-9.89-4.43-9.9-9.89l-.06-41.51c1.18-22.1,18.93-39.8,41.04-40.9h2.18c16.59.03,30.05-13.42,30.04-30.01l-.03-68.42c1.43-26.08,22.56-46.87,48.75-47.8l34.47.1c5.46.02,9.88,4.44,9.88,9.9l.09,207.54h21.09c16.58.02,30.02-13.43,30.01-30.01l-.12-228.71Z"/>
  </g>
</svg>